<svg data-v-423bf9ae="" xmlns="http://www.w3.org/2000/svg" viewBox="0 0 659 90" class="iconLeftSlogan"><!----><!----><!----><g data-v-423bf9ae="" id="b2768f95-d64f-4f2a-8da4-9d59d8bbdd50" fill="#ffffff" transform="matrix(5.3191490620891875,0,0,5.3191490620891875,113.23795030882258,3.723403624402142)"><path d="M1.41-0.42L5.32 10.11L9.23-0.42L9.52-0.42L9.52 10.50L9.24 10.50L9.24 2.65L9.28 0.22L5.46 10.50L5.18 10.50L1.36 0.22L1.40 2.65L1.40 10.50L1.12 10.50L1.12-0.42L1.41-0.42ZM11.37 8.75L11.37 8.75L11.37 8.61L11.37 8.61Q11.37 8.01 11.56 7.59L11.56 7.59L11.56 7.59Q11.75 7.18 12.12 6.96L12.12 6.96L12.12 6.96Q12.49 6.73 12.82 6.64L12.82 6.64L12.82 6.64Q13.16 6.54 13.65 6.47L13.65 6.47L16.17 6.06L16.17 5.60L16.17 5.60Q16.17 4.49 15.74 3.88L15.74 3.88L15.74 3.88Q15.32 3.28 14.07 3.28L14.07 3.28L14.07 3.28Q12.82 3.28 12.40 3.88L12.40 3.88L12.40 3.88Q11.97 4.49 11.97 5.60L11.97 5.60L11.69 5.60L11.69 5.45L11.69 5.45Q11.69 3.00 14.07 3.00L14.07 3.00L14.07 3.00Q16.45 3.00 16.45 5.45L16.45 5.45L16.45 8.82L16.52 10.50L16.31 10.50L16.20 9.32L16.20 9.32Q15.30 10.58 13.44 10.58L13.44 10.58L13.44 10.58Q12.52 10.58 11.94 10.10L11.94 10.10L11.94 10.10Q11.37 9.62 11.37 8.75ZM13.45 10.30L13.45 10.30L13.45 10.30Q15.39 10.30 16.17 8.85L16.17 8.85L16.17 6.33L13.55 6.75L13.55 6.75Q12.63 6.92 12.14 7.29L12.14 7.29L12.14 7.29Q11.65 7.67 11.65 8.60L11.65 8.60L11.65 8.75L11.65 8.75Q11.65 9.41 12.12 9.86L12.12 9.86L12.12 9.86Q12.59 10.30 13.45 10.30ZM27.09 5.04L27.09 10.50L26.81 10.50L26.81 5.11L26.81 5.11Q26.81 4.13 26.40 3.70L26.40 3.70L26.40 3.70Q25.98 3.28 25.12 3.28L25.12 3.28L25.12 3.28Q23.70 3.28 22.89 4.58L22.89 4.58L22.89 10.50L22.61 10.50L22.61 5.11L22.61 5.11Q22.61 4.13 22.20 3.70L22.20 3.70L22.20 3.70Q21.78 3.28 20.92 3.28L20.92 3.28L20.92 3.28Q19.50 3.28 18.69 4.58L18.69 4.58L18.69 10.50L18.41 10.50L18.41 4.76L18.34 3.08L18.55 3.08L18.65 4.21L18.65 4.21Q19.46 3.00 20.94 3.00L20.94 3.00L20.94 3.00Q22.48 3.00 22.81 4.28L22.81 4.28L22.81 4.28Q23.62 3.00 25.14 3.00L25.14 3.00L25.14 3.00Q27.09 3.00 27.09 5.04L27.09 5.04ZM33.77 9.62L33.77 9.62L33.77 9.62Q33.01 10.58 31.61 10.58L31.61 10.58L31.61 10.58Q30.21 10.58 29.46 9.62L29.46 9.62L29.46 9.62Q28.70 8.65 28.70 6.93L28.70 6.93L28.70 6.65L28.70 6.65Q28.70 4.93 29.46 3.96L29.46 3.96L29.46 3.96Q30.21 3.00 31.61 3.00L31.61 3.00L31.61 3.00Q33.01 3.00 33.77 3.96L33.77 3.96L33.77 3.96Q34.52 4.93 34.52 6.65L34.52 6.65L34.52 6.93L34.52 6.93Q34.52 8.65 33.77 9.62ZM29.67 9.41L29.67 9.41L29.67 9.41Q30.35 10.30 31.61 10.30L31.61 10.30L31.61 10.30Q32.87 10.30 33.56 9.41L33.56 9.41L33.56 9.41Q34.24 8.51 34.24 6.93L34.24 6.93L34.24 6.65L34.24 6.65Q34.24 5.07 33.56 4.17L33.56 4.17L33.56 4.17Q32.87 3.28 31.61 3.28L31.61 3.28L31.61 3.28Q30.35 3.28 29.67 4.17L29.67 4.17L29.67 4.17Q28.98 5.07 28.98 6.65L28.98 6.65L28.98 6.93L28.98 6.93Q28.98 8.51 29.67 9.41ZM36.13 8.40L36.13 3.08L36.41 3.08L36.41 8.33L36.41 8.33Q36.41 9.39 36.90 9.85L36.90 9.85L36.90 9.85Q37.39 10.30 38.39 10.30L38.39 10.30L38.39 10.30Q40.08 10.30 40.89 9.00L40.89 9.00L40.89 3.08L41.17 3.08L41.17 8.82L41.24 10.50L41.03 10.50L40.92 9.37L40.92 9.37Q40.08 10.58 38.36 10.58L38.36 10.58L38.36 10.58Q36.13 10.58 36.13 8.40L36.13 8.40ZM48.17 5.18L48.17 10.50L47.89 10.50L47.89 5.25L47.89 5.25Q47.89 4.19 47.40 3.73L47.40 3.73L47.40 3.73Q46.91 3.28 45.92 3.28L45.92 3.28L45.92 3.28Q44.23 3.28 43.41 4.58L43.41 4.58L43.41 10.50L43.13 10.50L43.13 4.76L43.06 3.08L43.27 3.08L43.37 4.23L43.37 4.23Q44.25 3.00 45.95 3.00L45.95 3.00L45.95 3.00Q48.17 3.00 48.17 5.18L48.17 5.18ZM52.65 10.50L52.65-0.42L55.16-0.42L55.16-0.42Q58.17-0.42 58.17 2.21L58.17 2.21L58.17 2.44L58.17 2.44Q58.17 4.52 56.28 4.91L56.28 4.91L56.28 4.91Q58.45 5.24 58.45 7.50L58.45 7.50L58.45 7.78L58.45 7.78Q58.45 10.50 55.44 10.50L55.44 10.50L52.65 10.50ZM55.41 5.07L55.41 5.07L52.93 5.07L52.93 10.22L55.41 10.22L55.41 10.22Q58.16 10.22 58.16 7.77L58.16 7.77L58.16 7.52L58.16 7.52Q58.16 5.07 55.41 5.07ZM55.13-0.14L55.13-0.14L52.93-0.14L52.93 4.79L55.13 4.79L55.13 4.79Q55.54 4.79 55.86 4.75L55.86 4.75L55.86 4.75Q56.18 4.72 56.58 4.58L56.58 4.58L56.58 4.58Q56.98 4.44 57.25 4.19L57.25 4.19L57.25 4.19Q57.51 3.95 57.69 3.49L57.69 3.49L57.69 3.49Q57.88 3.04 57.88 2.42L57.88 2.42L57.88 2.23L57.88 2.23Q57.88 1.61 57.69 1.15L57.69 1.15L57.69 1.15Q57.51 0.70 57.25 0.46L57.25 0.46L57.25 0.46Q56.98 0.21 56.58 0.07L56.58 0.07L56.58 0.07Q56.18-0.07 55.86-0.11L55.86-0.11L55.86-0.11Q55.54-0.14 55.13-0.14ZM65.10 9.62L65.10 9.62L65.10 9.62Q64.34 10.58 62.94 10.58L62.94 10.58L62.94 10.58Q61.54 10.58 60.79 9.62L60.79 9.62L60.79 9.62Q60.03 8.65 60.03 6.93L60.03 6.93L60.03 6.65L60.03 6.65Q60.03 4.93 60.79 3.96L60.79 3.96L60.79 3.96Q61.54 3.00 62.94 3.00L62.94 3.00L62.94 3.00Q64.34 3.00 65.10 3.96L65.10 3.96L65.10 3.96Q65.86 4.93 65.86 6.65L65.86 6.65L65.86 6.93L65.86 6.93Q65.86 8.65 65.10 9.62ZM61.00 9.41L61.00 9.41L61.00 9.41Q61.68 10.30 62.94 10.30L62.94 10.30L62.94 10.30Q64.20 10.30 64.89 9.41L64.89 9.41L64.89 9.41Q65.58 8.51 65.58 6.93L65.58 6.93L65.58 6.65L65.58 6.65Q65.58 5.07 64.89 4.17L64.89 4.17L64.89 4.17Q64.20 3.28 62.94 3.28L62.94 3.28L62.94 3.28Q61.68 3.28 61.00 4.17L61.00 4.17L61.00 4.17Q60.31 5.07 60.31 6.65L60.31 6.65L60.31 6.93L60.31 6.93Q60.31 8.51 61.00 9.41ZM67.47 8.40L67.47 3.08L67.75 3.08L67.75 8.33L67.75 8.33Q67.75 9.39 68.24 9.85L68.24 9.85L68.24 9.85Q68.73 10.30 69.72 10.30L69.72 10.30L69.72 10.30Q71.41 10.30 72.23 9.00L72.23 9.00L72.23 3.08L72.51 3.08L72.51 8.82L72.58 10.50L72.37 10.50L72.25 9.37L72.25 9.37Q71.41 10.58 69.69 10.58L69.69 10.58L69.69 10.58Q67.47 10.58 67.47 8.40L67.47 8.40ZM76.85 10.30L76.85 10.30L76.85 10.30Q77.95 10.30 78.59 9.83L78.59 9.83L78.59 9.83Q79.23 9.35 79.23 8.54L79.23 8.54L79.23 8.54Q79.23 7.63 78.66 7.29L78.66 7.29L78.66 7.29Q78.09 6.94 76.71 6.83L76.71 6.83L76.71 6.83Q75.31 6.69 74.78 6.25L74.78 6.25L74.78 6.25Q74.26 5.81 74.26 5.01L74.26 5.01L74.26 4.93L74.26 4.93Q74.26 4.06 74.95 3.53L74.95 3.53L74.95 3.53Q75.64 3.00 76.85 3.00L76.85 3.00L76.85 3.00Q79.44 3.00 79.44 5.40L79.44 5.40L79.44 5.46L79.16 5.46L79.16 5.46Q79.16 4.40 78.63 3.84L78.63 3.84L78.63 3.84Q78.11 3.28 76.85 3.28L76.85 3.28L76.85 3.28Q75.78 3.28 75.16 3.72L75.16 3.72L75.16 3.72Q74.54 4.17 74.54 4.97L74.54 4.97L74.54 4.97Q74.54 5.75 75.04 6.12L75.04 6.12L75.04 6.12Q75.54 6.48 76.99 6.61L76.99 6.61L76.99 6.61Q78.40 6.73 78.95 7.15L78.95 7.15L78.95 7.15Q79.51 7.56 79.51 8.50L79.51 8.50L79.51 8.58L79.51 8.58Q79.51 9.49 78.79 10.04L78.79 10.04L78.79 10.04Q78.08 10.58 76.85 10.58L76.85 10.58L76.85 10.58Q75.40 10.58 74.80 9.93L74.80 9.93L74.80 9.93Q74.19 9.28 74.19 8.32L74.19 8.32L74.19 8.26L74.47 8.26L74.47 8.26Q74.47 10.30 76.85 10.30ZM83.57 10.30L83.57 10.30L83.57 10.30Q84.67 10.30 85.31 9.83L85.31 9.83L85.31 9.83Q85.95 9.35 85.95 8.54L85.95 8.54L85.95 8.54Q85.95 7.63 85.38 7.29L85.38 7.29L85.38 7.29Q84.81 6.94 83.43 6.83L83.43 6.83L83.43 6.83Q82.03 6.69 81.50 6.25L81.50 6.25L81.50 6.25Q80.98 5.81 80.98 5.01L80.98 5.01L80.98 4.93L80.98 4.93Q80.98 4.06 81.67 3.53L81.67 3.53L81.67 3.53Q82.36 3.00 83.57 3.00L83.57 3.00L83.57 3.00Q86.16 3.00 86.16 5.40L86.16 5.40L86.16 5.46L85.88 5.46L85.88 5.46Q85.88 4.40 85.35 3.84L85.35 3.84L85.35 3.84Q84.83 3.28 83.57 3.28L83.57 3.28L83.57 3.28Q82.50 3.28 81.88 3.72L81.88 3.72L81.88 3.72Q81.26 4.17 81.26 4.97L81.26 4.97L81.26 4.97Q81.26 5.75 81.76 6.12L81.76 6.12L81.76 6.12Q82.26 6.48 83.71 6.61L83.71 6.61L83.71 6.61Q85.12 6.73 85.67 7.15L85.67 7.15L85.67 7.15Q86.23 7.56 86.23 8.50L86.23 8.50L86.23 8.58L86.23 8.58Q86.23 9.49 85.51 10.04L85.51 10.04L85.51 10.04Q84.80 10.58 83.57 10.58L83.57 10.58L83.57 10.58Q82.12 10.58 81.52 9.93L81.52 9.93L81.52 9.93Q80.91 9.28 80.91 8.32L80.91 8.32L80.91 8.26L81.19 8.26L81.19 8.26Q81.19 10.30 83.57 10.30ZM88.33 10.50L88.05 10.50L88.05 3.08L88.33 3.08L88.33 10.50ZM87.91 0.42L88.47 0.42L88.47 0.98L87.91 0.98L87.91 0.42ZM93.06 3.00L93.06 3.00L93.06 3.00Q94.46 3.00 95.33 4.13L95.33 4.13L95.33-0.70L95.61-0.70L95.61 8.82L95.68 10.50L95.47 10.50L95.37 9.39L95.37 9.39Q94.51 10.58 93.06 10.58L93.06 10.58L93.06 10.58Q91.67 10.58 90.94 9.62L90.94 9.62L90.94 9.62Q90.22 8.65 90.22 6.93L90.22 6.93L90.22 6.65L90.22 6.65Q90.22 4.93 90.94 3.96L90.94 3.96L90.94 3.96Q91.67 3.00 93.06 3.00ZM95.33 9.00L95.33 4.58L95.33 4.58Q94.47 3.28 93.06 3.28L93.06 3.28L93.06 3.28Q91.80 3.28 91.15 4.17L91.15 4.17L91.15 4.17Q90.50 5.07 90.50 6.65L90.50 6.65L90.50 6.93L90.50 6.93Q90.50 8.51 91.15 9.41L91.15 9.41L91.15 9.41Q91.80 10.30 93.06 10.30L93.06 10.30L93.06 10.30Q94.47 10.30 95.33 9.00L95.33 9.00ZM97.31 8.75L97.31 8.75L97.31 8.61L97.31 8.61Q97.31 8.01 97.50 7.59L97.50 7.59L97.50 7.59Q97.69 7.18 98.06 6.96L98.06 6.96L98.06 6.96Q98.43 6.73 98.77 6.64L98.77 6.64L98.77 6.64Q99.11 6.54 99.60 6.47L99.60 6.47L102.12 6.06L102.12 5.60L102.12 5.60Q102.12 4.49 101.69 3.88L101.69 3.88L101.69 3.88Q101.26 3.28 100.02 3.28L100.02 3.28L100.02 3.28Q98.77 3.28 98.34 3.88L98.34 3.88L98.34 3.88Q97.92 4.49 97.92 5.60L97.92 5.60L97.64 5.60L97.64 5.45L97.64 5.45Q97.64 3.00 100.02 3.00L100.02 3.00L100.02 3.00Q102.40 3.00 102.40 5.45L102.40 5.45L102.40 8.82L102.47 10.50L102.26 10.50L102.14 9.32L102.14 9.32Q101.25 10.58 99.39 10.58L99.39 10.58L99.39 10.58Q98.46 10.58 97.89 10.10L97.89 10.10L97.89 10.10Q97.31 9.62 97.31 8.75ZM99.40 10.30L99.40 10.30L99.40 10.30Q101.33 10.30 102.12 8.85L102.12 8.85L102.12 6.33L99.50 6.75L99.50 6.75Q98.57 6.92 98.08 7.29L98.08 7.29L98.08 7.29Q97.59 7.67 97.59 8.60L97.59 8.60L97.59 8.75L97.59 8.75Q97.59 9.41 98.06 9.86L98.06 9.86L98.06 9.86Q98.53 10.30 99.40 10.30Z"></path></g><!----><g data-v-423bf9ae="" id="1d98a58f-12d2-4482-a776-5fba23008dbd" transform="matrix(1.5325670896298305,0,0,1.5325670896298305,-27.330365644507538,-32.649905085652534)" stroke="none" fill="#FFFFFF"><path d="M82.7 50.6L63.6 31.3c-.3-.3-.9-.3-1.2 0-.3.3-.3.9 0 1.2L81 51.2 62.3 70c-.3.3-.3.9 0 1.2.2.2.4.3.6.3.2 0 .5-.1.6-.3l19.2-19.3c.4-.4.4-.9 0-1.3zM38.9 31.3c-.3-.3-.9-.3-1.2 0L18.5 50.6c-.3.3-.3.9 0 1.2l19.2 19.3c.2.2.4.3.6.3.2 0 .4-.1.6-.3.3-.3.3-.9 0-1.2L20.4 51.2 39 32.5c.3-.3.3-.9-.1-1.2zM59.8 21.9c-.5-.1-1 .1-1.1.6l-17.9 57c-.1.5.1 1 .6 1.1h.3c.4 0 .7-.2.8-.6l17.9-57c.1-.5-.1-1-.6-1.1z"></path></g><!----><g data-v-423bf9ae="" id="84cfa702-c28c-41f6-9809-3766acf1503f" fill="#8B0404" transform="matrix(1.6234766038977233,0,0,1.6234766038977233,117.08488737915698,52.905406216267465)"><path d="M1.30 13.78L3.49 13.78C6.27 13.78 7.64 11.97 7.64 9.11C7.64 6.27 6.27 4.54 3.44 4.54L1.30 4.54ZM2.11 13.09L2.11 5.22L3.39 5.22C5.73 5.22 6.79 6.75 6.79 9.11C6.79 11.49 5.73 13.09 3.39 13.09ZM16.95 13.78L17.78 13.78L17.78 9.66L19.63 9.66L22.02 13.78L22.97 13.78L20.54 9.62C21.88 9.34 22.76 8.50 22.76 7.01C22.76 5.21 21.50 4.54 19.67 4.54L16.95 4.54ZM17.78 8.96L17.78 5.21L19.50 5.21C21.06 5.21 21.92 5.70 21.92 7.01C21.92 8.33 21.06 8.96 19.50 8.96ZM32.24 13.78L37.76 13.78L37.76 13.06L35.42 13.06L35.42 5.24L37.76 5.24L37.76 4.54L32.24 4.54L32.24 5.24L34.58 5.24L34.58 13.06L32.24 13.06ZM49.94 13.78L50.88 13.78L53.86 4.54L53.00 4.54L51.38 9.79C51.04 10.91 50.81 11.75 50.46 12.87L50.40 12.87C50.04 11.75 49.80 10.91 49.45 9.79L47.82 4.54L46.96 4.54ZM63.32 13.78L69.01 13.78L69.01 13.06L64.16 13.06L64.16 9.25L68.12 9.25L68.12 8.53L64.16 8.53L64.16 5.24L68.87 5.24L68.87 4.54L63.32 4.54ZM78.25 13.78L79.03 13.78L79.03 8.36C79.03 7.46 78.95 6.55 78.93 5.64L78.95 5.64L79.93 7.49L83.30 13.78L84.15 13.78L84.15 4.54L83.37 4.54L83.37 9.90C83.37 10.82 83.45 11.77 83.47 12.66L83.45 12.66L79.10 4.54L78.25 4.54ZM109.34 13.78L111.93 13.78C114.00 13.78 115.37 12.88 115.37 11.07C115.37 9.80 114.55 9.04 113.19 8.85L113.19 8.79C114.27 8.53 114.81 7.71 114.81 6.78C114.81 5.21 113.61 4.54 111.73 4.54L109.34 4.54ZM110.19 8.57L110.19 5.21L111.58 5.21C113.16 5.21 113.99 5.68 113.99 6.80C113.99 7.94 113.29 8.57 111.51 8.57ZM110.19 13.10L110.19 9.21L111.76 9.21C113.54 9.21 114.55 9.79 114.55 11.06C114.55 12.47 113.50 13.10 111.76 13.10ZM126.98 13.78L127.82 13.78L127.82 10.40L130.96 4.54L130.10 4.54L128.62 7.45C128.25 8.16 127.85 8.90 127.46 9.65L127.40 9.65C126.99 8.90 126.64 8.19 126.27 7.49L124.71 4.54L123.84 4.54L126.98 10.40ZM155.58 13.78L156.41 13.78L156.41 9.91L158.20 9.91C160.24 9.91 161.52 9.03 161.52 7.15C161.52 5.21 160.24 4.54 158.20 4.54L155.58 4.54ZM156.41 9.21L156.41 5.21L158.03 5.21C159.81 5.21 160.68 5.67 160.68 7.15C160.68 8.61 159.82 9.21 158.03 9.21ZM169.97 13.78L170.81 13.78L171.82 10.71L175.36 10.71L176.36 13.78L177.23 13.78L174.05 4.54L173.15 4.54ZM172.07 10.02L172.59 8.41C172.94 7.34 173.25 6.37 173.57 5.25L173.63 5.25C173.94 6.37 174.24 7.34 174.61 8.41L175.13 10.02ZM189.11 13.94C191.03 13.94 192.25 12.84 192.25 11.40C192.25 10.00 191.28 9.45 190.19 8.95L188.83 8.36C188.09 8.02 187.14 7.64 187.14 6.65C187.14 5.70 187.95 5.11 189.17 5.11C190.13 5.11 190.88 5.47 191.46 6.02L191.93 5.47C191.31 4.84 190.33 4.37 189.17 4.37C187.50 4.37 186.28 5.33 186.28 6.71C186.28 8.05 187.40 8.68 188.29 9.04L189.66 9.63C190.62 10.07 191.41 10.37 191.41 11.47C191.41 12.50 190.54 13.20 189.11 13.20C188.02 13.20 187.03 12.71 186.34 11.97L185.82 12.56C186.59 13.38 187.73 13.94 189.11 13.94ZM204.51 13.94C206.43 13.94 207.65 12.84 207.65 11.40C207.65 10.00 206.68 9.45 205.59 8.95L204.23 8.36C203.49 8.02 202.54 7.64 202.54 6.65C202.54 5.70 203.35 5.11 204.57 5.11C205.53 5.11 206.28 5.47 206.86 6.02L207.33 5.47C206.71 4.84 205.73 4.37 204.57 4.37C202.90 4.37 201.68 5.33 201.68 6.71C201.68 8.05 202.80 8.68 203.69 9.04L205.06 9.63C206.02 10.07 206.81 10.37 206.81 11.47C206.81 12.50 205.94 13.20 204.51 13.20C203.42 13.20 202.43 12.71 201.74 11.97L201.22 12.56C201.99 13.38 203.13 13.94 204.51 13.94ZM217.04 13.78L222.56 13.78L222.56 13.06L220.22 13.06L220.22 5.24L222.56 5.24L222.56 4.54L217.04 4.54L217.04 5.24L219.38 5.24L219.38 13.06L217.04 13.06ZM235.20 13.94C237.23 13.94 238.67 12.07 238.67 9.11C238.67 6.20 237.23 4.37 235.20 4.37C233.17 4.37 231.73 6.19 231.73 9.11C231.73 12.07 233.17 13.94 235.20 13.94ZM235.20 13.20C233.63 13.20 232.58 11.59 232.58 9.11C232.58 6.65 233.63 5.11 235.20 5.11C236.77 5.11 237.82 6.65 237.82 9.11C237.82 11.59 236.77 13.20 235.20 13.20ZM247.65 13.78L248.43 13.78L248.43 8.36C248.43 7.46 248.35 6.55 248.33 5.64L248.35 5.64L249.33 7.49L252.70 13.78L253.55 13.78L253.55 4.54L252.77 4.54L252.77 9.90C252.77 10.82 252.85 11.77 252.87 12.66L252.85 12.66L248.50 4.54L247.65 4.54ZM266.00 13.94C266.50 13.94 266.95 13.55 266.95 12.94C266.95 12.31 266.50 11.93 266.00 11.93C265.50 11.93 265.05 12.31 265.05 12.94C265.05 13.55 265.50 13.94 266.00 13.94Z"></path></g></svg>