<svg data-v-fde0c5aa="" xmlns="http://www.w3.org/2000/svg" viewBox="0 0 300 300" class="icon"><!----><defs data-v-fde0c5aa=""><!----></defs><rect data-v-fde0c5aa="" fill="#161617" x="0" y="0" width="300px" height="300px" class="logo-background-square"></rect><!----><defs data-v-fde0c5aa=""><!----></defs><g data-v-fde0c5aa="" id="54ef21b8-eb9f-423a-8477-14f8cd672cc9" fill="#FFFFFF" stroke="none" transform="matrix(3.3989958313859567,0,0,3.3989958313859567,-22.1166540050344,-24.15604631740993)"><path d="M82.7 50.6L63.6 31.3c-.3-.3-.9-.3-1.2 0-.3.3-.3.9 0 1.2L81 51.2 62.3 70c-.3.3-.3.9 0 1.2.2.2.4.3.6.3.2 0 .5-.1.6-.3l19.2-19.3c.4-.4.4-.9 0-1.3zM38.9 31.3c-.3-.3-.9-.3-1.2 0L18.5 50.6c-.3.3-.3.9 0 1.2l19.2 19.3c.2.2.4.3.6.3.2 0 .4-.1.6-.3.3-.3.3-.9 0-1.2L20.4 51.2 39 32.5c.3-.3.3-.9-.1-1.2zM59.8 21.9c-.5-.1-1 .1-1.1.6l-17.9 57c-.1.5.1 1 .6 1.1h.3c.4 0 .7-.2.8-.6l17.9-57c.1-.5-.1-1-.6-1.1z"></path></g><!----></svg>