<?xml version="1.0" standalone="no"?>
<!DOCTYPE svg PUBLIC "-//W3C//DTD SVG 20010904//EN"
 "http://www.w3.org/TR/2001/REC-SVG-20010904/DTD/svg10.dtd">
<svg version="1.0" xmlns="http://www.w3.org/2000/svg"
 width="300.000000pt" height="300.000000pt" viewBox="0 0 300.000000 300.000000"
 preserveAspectRatio="xMidYMid meet">
<metadata>
Created by potrace 1.11, written by Peter Selinger 2001-2013
</metadata>
<g transform="translate(0.000000,300.000000) scale(0.100000,-0.100000)"
fill="#000000" stroke="none">
<path d="M0 1500 l0 -1500 1500 0 1500 0 0 1500 0 1500 -1500 0 -1500 0 0
-1500z m2010 965 c0 -2 -124 -368 -276 -812 -152 -444 -294 -861 -316 -925
l-40 -118 -129 0 c-71 0 -129 2 -129 4 0 2 142 419 315 926 173 507 315 924
315 926 0 2 59 4 130 4 72 0 130 -2 130 -5z m-973 -810 c-3 -5 -59 -35 -126
-65 -66 -29 -121 -57 -121 -60 0 -3 56 -33 124 -66 l125 -59 0 -158 c1 -131
-1 -157 -13 -150 -64 37 -676 429 -676 433 0 3 154 103 343 222 l342 217 3
-152 c1 -83 1 -156 -1 -162z m1342 95 c187 -118 341 -217 340 -220 0 -5 -672
-432 -689 -438 -6 -2 -10 57 -10 153 l0 156 130 61 c72 34 130 64 130 67 0 3
-59 33 -130 65 l-130 59 0 159 c0 96 4 158 9 156 6 -1 163 -100 350 -218z"/>
</g>
</svg>
